<?xml version="1.0" standalone="no"?>
<!DOCTYPE svg PUBLIC "-//W3C//DTD SVG 20010904//EN"
 "http://www.w3.org/TR/2001/REC-SVG-20010904/DTD/svg10.dtd">
<svg version="1.0" xmlns="http://www.w3.org/2000/svg"
 width="700.000000pt" height="700.000000pt" viewBox="0 0 700.000000 700.000000"
 preserveAspectRatio="xMidYMid meet">
<metadata>
Created by potrace 1.11, written by Peter Selinger 2001-2013
</metadata>
<g transform="translate(0.000000,700.000000) scale(0.100000,-0.100000)"
fill="#000000" stroke="none">
<path d="M442 6555 c-9 -13 -7 -2603 1 -2611 7 -7 130 -6 202 1 153 16 151 16
235 29 142 23 431 106 561 162 222 95 483 250 638 379 404 335 688 741 845
1208 33 100 54 171 62 210 2 10 6 27 9 37 7 23 12 49 25 125 5 33 12 71 15 85
3 14 7 57 10 95 4 39 8 84 10 100 7 53 8 175 1 182 -11 11 -2607 9 -2614 -2z"/>
<path d="M3963 6562 c-13 -2 -23 -6 -24 -10 -4 -41 0 -2604 4 -2608 8 -8 2606
-8 2614 0 8 8 1 202 -11 286 -2 14 -7 52 -11 85 -6 49 -22 132 -50 255 -20 90
-73 254 -120 365 -37 91 -135 289 -165 335 -179 274 -243 355 -409 521 -165
165 -321 288 -501 396 -295 177 -635 300 -950 344 -41 5 -86 12 -100 14 -14 3
-74 8 -135 11 -60 3 -112 7 -115 8 -3 1 -15 0 -27 -2z"/>
<path d="M439 3045 c-2 -35 9 -250 15 -285 3 -14 7 -45 10 -70 3 -25 8 -56 11
-70 3 -14 8 -41 11 -60 30 -194 136 -491 255 -720 56 -107 204 -339 246 -385
10 -11 36 -43 58 -70 102 -127 310 -324 455 -431 337 -246 755 -425 1125 -480
17 -2 57 -9 90 -14 33 -5 110 -12 170 -16 61 -3 125 -7 143 -8 28 -2 32 1 33
23 4 144 1 2593 -4 2597 -3 4 -593 7 -1311 8 -1299 1 -1306 1 -1307 -19z"/>
<path d="M3963 3062 c-13 -2 -23 -9 -24 -15 -4 -73 0 -2599 5 -2604 8 -8 2587
-10 2606 -2 13 6 15 161 14 1308 0 716 -4 1304 -7 1307 -6 7 -2551 12 -2594 6z"/>
</g>
</svg>
